<svg id="&#x5F62;&#x72B6;_1_1_" enable-background="new 0 0 512 512" height="512" viewBox="0 0 512 512" width="512" xmlns="http://www.w3.org/2000/svg"><g id="&#x5F62;&#x72B6;_1"><g><path clip-rule="evenodd" d="m368.911 226.687h-9.741v59.637h45.763l6.199-9.743h-42.221zm-133.575 2.952-35.724 56.685h11.81l10.776-17.125h23.028l6.053-9.74h-23.029l12.547-19.634 29.376 46.499h11.807l-36.018-56.832c-2.212-3.691-8.118-3.691-10.626.147zm69.23 6.772h40.964l6.04-9.734-47.298.027c-16.461 0-27.294 13.342-27.294 29.8 0 16.457 10.833 29.802 27.294 29.802l40.012-.047 6.264-9.661h-45.981c-11.098 0-17.584-8.996-17.584-20.094-.001-11.096 6.486-20.093 17.583-20.093zm-209.044-9.707h-42.219c-16.458 0-27.291 13.342-27.291 29.801 0 16.456 10.833 29.801 27.291 29.801h42.219c16.459 0 27.291-13.345 27.291-29.801 0-16.459-10.832-29.801-27.291-29.801zm0 49.894h-42.219c-11.097 0-17.583-8.996-17.583-20.093s6.487-20.094 17.583-20.094h42.219c11.097 0 17.584 8.997 17.584 20.094s-6.487 20.093-17.584 20.093zm326.334-15.369h51.589l6.204-9.743h-57.793c1.688-8.633 7.783-15.074 17.121-15.074h40.965l6.045-9.734-47.303.027c-16.461 0-27.289 13.342-27.289 29.8 0 16.457 10.828 29.802 27.289 29.802l40.011-.047 6.264-9.661h-45.981c-9.472-.001-15.538-6.551-17.122-15.37zm-243.523.864c9.771 0 17.692-7.921 17.692-17.693 0-9.771-7.921-17.691-17.692-17.691l-49.674-.021v59.637h10.924v-49.908h38.75c4.41 0 7.985 3.575 7.985 7.984 0 4.41-3.575 7.985-7.985 7.985h-31.073l35.052 33.871h14.103l-25.094-24.143z" fill="#e72e15" fill-rule="evenodd"/></g></g></svg>